D:\school\WTK\thesis\model\3dpredictsim\Results\Batchsim_tmt_linear\Pog_s1_tmt_bCst_d02_k800_ig24_act_GRF.mot
nRows=30
nColumns=19

name D:\school\WTK\thesis\model\3dpredictsim\Results\Batchsim_tmt_linear\Pog_s1_tmt_bCst_d02_k800_ig24_act_GRF.mot
datacolumns 19
datarows 30
range 0.6238996327 0.9857614196
endheader
time 	ground_force_vx	ground_force_vy	ground_force_vz	ground_force_px	ground_force_py	ground_force_pz	1_ground_force_vx	1_ground_force_vy	1_ground_force_vz	1_ground_force_px	1_ground_force_py	1_ground_force_pz	ground_torque_x	ground_torque_y	ground_torque_z	1_ground_torque_x	1_ground_torque_y	1_ground_torque_z
        0.6238996327	       78.0708917858	      348.5776731679	        4.1451465691	        0.4064705179	        0.0000000000	        0.0317133715	      -82.8997959829	       71.3832938699	      -21.6481552810	        0.9636181342	        0.0000000000	       -0.0488871360	        0.0000000000	        0.0000000000	        0.0000000000	        0.0000000000	        0.0000000000	        0.0000000000	
        0.6363776253	       42.8779018394	      242.5354793348	       14.0396268081	        0.4186136981	        0.0000000000	        0.0270071253	     -106.4942654079	      210.1164577645	      -46.2147602242	        0.9703814776	        0.0000000000	       -0.0474498305	        0.0000000000	        0.0000000000	        0.0000000000	        0.0000000000	        0.0000000000	        0.0000000000	
        0.6488556180	       24.8270113209	      186.4639211695	       14.9955190431	        0.4267049237	        0.0000000000	        0.0231701907	      -65.3700994880	      449.7304953660	       -4.5736320054	        0.9746945941	        0.0000000000	       -0.0464307743	        0.0000000000	        0.0000000000	        0.0000000000	        0.0000000000	        0.0000000000	        0.0000000000	
        0.6613336106	       22.0352987734	      146.1178674801	       14.5048588664	        0.4270452956	        0.0000000000	        0.0232457384	      -86.4743654059	      687.4606659033	       13.8881521048	        0.9827286689	        0.0000000000	       -0.0479921751	        0.0000000000	        0.0000000000	        0.0000000000	        0.0000000000	        0.0000000000	        0.0000000000	
        0.6738116033	       11.9799040774	       95.5761879238	       13.8924983276	        0.4272023210	        0.0000000000	        0.0234162510	     -130.6408144630	      864.1506525766	       21.2723046505	        0.9918810665	        0.0000000000	       -0.0502405005	        0.0000000000	        0.0000000000	        0.0000000000	        0.0000000000	        0.0000000000	        0.0000000000	
        0.6862895959	       -5.0027797811	       38.7032565963	        7.1293119265	        0.4259555108	        0.0000000000	        0.0233284791	     -145.2025706107	      907.3417440729	       22.1282273225	        0.9976627901	        0.0000000000	       -0.0514831529	        0.0000000000	        0.0000000000	        0.0000000000	        0.0000000000	        0.0000000000	        0.0000000000	
        0.6987675886	       -4.4870995983	        4.3548123909	       -0.1162864375	        0.0000000000	        0.0000000000	        0.0000000000	     -133.6167001636	      883.1905189463	       21.5269671656	        1.0017425673	        0.0000000000	       -0.0521491986	        0.0000000000	        0.0000000000	        0.0000000000	        0.0000000000	        0.0000000000	        0.0000000000	
        0.7112455813	       -7.7685280003	        6.0635875191	       -0.6476061642	        0.0000000000	        0.0000000000	        0.0000000000	     -119.7886591470	      834.0362421757	       19.4152744247	        1.0056959464	        0.0000000000	       -0.0524668671	        0.0000000000	        0.0000000000	        0.0000000000	        0.0000000000	        0.0000000000	        0.0000000000	
        0.7237235739	       -6.5760464871	        4.4320576196	       -0.6025624536	        0.0000000000	        0.0000000000	        0.0000000000	     -105.4461954018	      790.6491783048	       17.7885222341	        1.0099036258	        0.0000000000	       -0.0524633243	        0.0000000000	        0.0000000000	        0.0000000000	        0.0000000000	        0.0000000000	        0.0000000000	
        0.7362015666	       -4.6636414689	        2.8248203082	       -0.4232566030	        0.0000000000	        0.0000000000	        0.0000000000	      -94.1040922914	      756.5830581611	       17.7133579868	        1.0150023208	        0.0000000000	       -0.0522264623	        0.0000000000	        0.0000000000	        0.0000000000	        0.0000000000	        0.0000000000	        0.0000000000	
        0.7486795592	       -2.8218161354	        1.5762141488	       -0.2564772126	        0.0000000000	        0.0000000000	        0.0000000000	      -84.3579293085	      728.6280385042	       18.1683735480	        1.0205878323	        0.0000000000	       -0.0517829211	        0.0000000000	        0.0000000000	        0.0000000000	        0.0000000000	        0.0000000000	        0.0000000000	
        0.7611575519	       -2.1266201691	        1.1269873180	       -0.1787140600	        0.0000000000	        0.0000000000	        0.0000000000	      -73.6704987020	      700.3329384768	       18.4539401909	        1.0257756095	        0.0000000000	       -0.0514210695	        0.0000000000	        0.0000000000	        0.0000000000	        0.0000000000	        0.0000000000	        0.0000000000	
        0.7736355445	       -1.4595444719	        0.7409570668	       -0.1174971750	        0.0000000000	        0.0000000000	        0.0000000000	      -63.4005528331	      672.6249521991	       19.3379044343	        1.0305560095	        0.0000000000	       -0.0511677158	        0.0000000000	        0.0000000000	        0.0000000000	        0.0000000000	        0.0000000000	        0.0000000000	
        0.7861135372	       -0.9874355459	        0.4835287961	       -0.0762231891	        0.0000000000	        0.0000000000	        0.0000000000	      -53.9185660229	      648.7952934514	       19.6245857709	        1.0352592877	        0.0000000000	       -0.0510030618	        0.0000000000	        0.0000000000	        0.0000000000	        0.0000000000	        0.0000000000	        0.0000000000	
        0.7985915298	       -0.7198684604	        0.3421613099	       -0.0538322277	        0.0000000000	        0.0000000000	        0.0000000000	      -45.7061619037	      628.9874048394	       20.0317639235	        1.0400258241	        0.0000000000	       -0.0508661366	        0.0000000000	        0.0000000000	        0.0000000000	        0.0000000000	        0.0000000000	        0.0000000000	
        0.8110695225	       -0.5785467582	        0.2679779148	       -0.0418142007	        0.0000000000	        0.0000000000	        0.0000000000	      -38.5035258062	      613.5373361346	       20.2112726438	        1.0451683780	        0.0000000000	       -0.0507093004	        0.0000000000	        0.0000000000	        0.0000000000	        0.0000000000	        0.0000000000	        0.0000000000	
        0.8235475151	       -0.5127659631	        0.2321886882	       -0.0358900617	        0.0000000000	        0.0000000000	        0.0000000000	      -32.4630328599	      602.7789259276	       20.2501311662	        1.0510682185	        0.0000000000	       -0.0504607545	        0.0000000000	        0.0000000000	        0.0000000000	        0.0000000000	        0.0000000000	        0.0000000000	
        0.8360255078	       -0.4984086750	        0.2210089322	       -0.0337975009	        0.0000000000	        0.0000000000	        0.0000000000	      -27.9037609424	      595.8397204886	       19.9959071189	        1.0576154684	        0.0000000000	       -0.0500972718	        0.0000000000	        0.0000000000	        0.0000000000	        0.0000000000	        0.0000000000	        0.0000000000	
        0.8485035004	       -0.5346114102	        0.2322218074	       -0.0349620126	        0.0000000000	        0.0000000000	        0.0000000000	      -24.6222011384	      592.2051179702	       19.3702118288	        1.0644943435	        0.0000000000	       -0.0496389376	        0.0000000000	        0.0000000000	        0.0000000000	        0.0000000000	        0.0000000000	        0.0000000000	
        0.8609814931	       -0.6220833350	        0.2649090884	       -0.0388583503	        0.0000000000	        0.0000000000	        0.0000000000	      -21.8083021381	      590.3743327997	       18.5081054087	        1.0715031480	        0.0000000000	       -0.0491066911	        0.0000000000	        0.0000000000	        0.0000000000	        0.0000000000	        0.0000000000	        0.0000000000	
        0.8734594857	       -0.7618270953	        0.3184608831	       -0.0450828961	        0.0000000000	        0.0000000000	        0.0000000000	      -19.3389511913	      589.3800872144	       17.8097763886	        1.0784676088	        0.0000000000	       -0.0485262198	        0.0000000000	        0.0000000000	        0.0000000000	        0.0000000000	        0.0000000000	        0.0000000000	
        0.8859374784	       -0.9491414597	        0.3902049082	       -0.0532566336	        0.0000000000	        0.0000000000	        0.0000000000	      -16.8167559500	      587.9585378643	       17.7955434475	        1.0852293441	        0.0000000000	       -0.0479290728	        0.0000000000	        0.0000000000	        0.0000000000	        0.0000000000	        0.0000000000	        0.0000000000	
        0.8984154711	       -1.1667168030	        0.4727177208	       -0.0623344573	        0.0000000000	        0.0000000000	        0.0000000000	      -14.1779929634	      585.3657055922	       18.0107496511	        1.0918247781	        0.0000000000	       -0.0473235335	        0.0000000000	        0.0000000000	        0.0000000000	        0.0000000000	        0.0000000000	        0.0000000000	
        0.9108934637	       -1.3863730468	        0.5548257708	       -0.0709051110	        0.0000000000	        0.0000000000	        0.0000000000	      -11.4410898287	      581.3753122305	       18.1952680364	        1.0982364213	        0.0000000000	       -0.0467166160	        0.0000000000	        0.0000000000	        0.0000000000	        0.0000000000	        0.0000000000	        0.0000000000	
        0.9233714564	       -1.5730632581	        0.6231872942	       -0.0769316874	        0.0000000000	        0.0000000000	        0.0000000000	       -8.4774795692	      576.7482293846	       18.1412953917	        1.1045107462	        0.0000000000	       -0.0461026583	        0.0000000000	        0.0000000000	        0.0000000000	        0.0000000000	        0.0000000000	        0.0000000000	
        0.9358494490	       -1.7026395456	        0.6689863308	       -0.0786445096	        0.0000000000	        0.0000000000	        0.0000000000	       -5.4107321464	      571.3184600709	       17.7163566196	        1.1106166992	        0.0000000000	       -0.0454833038	        0.0000000000	        0.0000000000	        0.0000000000	        0.0000000000	        0.0000000000	        0.0000000000	
        0.9483274417	       -1.7783254403	        0.6938902350	       -0.0756660278	        0.0000000000	        0.0000000000	        0.0000000000	       -2.2675795842	      566.8991656590	       16.7570337798	        1.1167082555	        0.0000000000	       -0.0448282863	        0.0000000000	        0.0000000000	        0.0000000000	        0.0000000000	        0.0000000000	        0.0000000000	
        0.9608054343	       -1.8168915912	        0.7045704832	       -0.0679616730	        0.0000000000	        0.0000000000	        0.0000000000	        0.7737356648	      564.1288223958	       15.3615183415	        1.1227210705	        0.0000000000	       -0.0441383403	        0.0000000000	        0.0000000000	        0.0000000000	        0.0000000000	        0.0000000000	        0.0000000000	
        0.9732834270	       -1.8114820059	        0.6987797267	       -0.0556381888	        0.0000000000	        0.0000000000	        0.0000000000	        3.7275443926	      563.8110433044	       14.0118163840	        1.1285120616	        0.0000000000	       -0.0434272389	        0.0000000000	        0.0000000000	        0.0000000000	        0.0000000000	        0.0000000000	        0.0000000000	
        0.9857614196	       -1.7243667638	        0.6623066016	       -0.0394536695	        0.0000000000	        0.0000000000	        0.0000000000	        6.6860867861	      566.8719750650	       13.2180281788	        1.1338813381	        0.0000000000	       -0.0427179155	        0.0000000000	        0.0000000000	        0.0000000000	        0.0000000000	        0.0000000000	        0.0000000000	
